<?xml version="1.0" standalone="no"?>
<!DOCTYPE svg PUBLIC "-//W3C//DTD SVG 20010904//EN"
 "http://www.w3.org/TR/2001/REC-SVG-20010904/DTD/svg10.dtd">
<svg version="1.0" xmlns="http://www.w3.org/2000/svg"
 width="96.000000pt" height="96.000000pt" viewBox="0 0 96.000000 96.000000"
 preserveAspectRatio="xMidYMid meet">

<g transform="translate(0.000000,96.000000) scale(0.100000,-0.100000)"
fill="#000000" stroke="none">
<path d="M115 871 c-11 -5 -31 -21 -45 -36 l-25 -27 0 -249 0 -249 32 -32 c29
-29 39 -33 89 -33 43 0 59 4 68 17 17 28 -4 52 -50 56 -21 2 -44 8 -51 14 -18
15 -19 438 -1 456 17 17 679 17 696 0 18 -18 17 -441 -1 -456 -7 -6 -30 -12
-51 -14 -46 -4 -67 -28 -50 -56 9 -13 25 -17 68 -17 50 0 60 4 89 33 l32 32 0
250 0 250 -33 32 -32 33 -358 2 c-196 1 -366 -2 -377 -6z"/>
<path d="M353 270 c-59 -72 -109 -137 -111 -146 -9 -40 11 -44 238 -44 227 0
247 4 238 44 -6 30 -219 276 -238 276 -12 0 -59 -49 -127 -130z m186 -42 l51
-63 -55 -3 c-30 -2 -80 -2 -110 0 l-55 3 51 63 c28 34 55 62 59 62 4 0 31 -28
59 -62z"/>
</g>
</svg>
