<svg width="96" height="96" version="1.1" xmlns="http://www.w3.org/2000/svg" desc="Created with imagetracer.js version 1.2.6" ><path fill="rgb(0,0,0)" stroke="rgb(0,0,0)" stroke-width="1" opacity="0" d="M 0 0 L 95.5 0 L 96 0.5 L 96 9.5 L 93.5 8 L 2.5 8 L 0.5 10 L 0 0 Z " /><path fill="rgb(0,0,0)" stroke="rgb(0,0,0)" stroke-width="1" opacity="0" d="M 8 16 L 87.5 16 L 88 16.5 L 88 28 L 8.5 28 L 8 27.5 L 8 16 Z " /><path fill="rgb(0,0,0)" stroke="rgb(0,0,0)" stroke-width="1" opacity="0" d="M 0.5 34 Q 2.2 37.5 8 36 L 8 85.5 L 10.5 88 L 85.5 88 L 88 85.5 L 88 36.5 Q 88.1 35.4 93.5 36 L 96 34.5 L 96 96 L 0 96 L 0.5 34 Z " /><path fill="rgb(0,0,0)" stroke="rgb(0,0,0)" stroke-width="1" opacity="0" d="M 16 36 L 80 36 L 80 80 L 16 80 L 16 36 Z M 39 44 Q 35 45 36 50 L 39 52 L 58 52 Q 61 51 60 47 L 58 44 L 39 44 Z " /><path fill="rgb(29,29,29)" stroke="rgb(29,29,29)" stroke-width="1" opacity="0.996078431372549" d="M 2.5 8 L 93.5 8 L 96 10.5 L 96 33.5 L 93.5 36 Q 88.1 35.4 88 36.5 L 88 85.5 L 85.5 88 L 10.5 88 L 8 85.5 L 8 36 Q 1.7 37.5 0 33.5 L 0 10.5 L 2.5 8 Z M 8 16 L 8 28 L 9 28 L 88 28 L 88 17 L 88 16 L 8 16 Z M 16 36 L 16 80 L 80 80 L 80 36 L 16 36 Z " /><path fill="rgb(29,29,29)" stroke="rgb(29,29,29)" stroke-width="1" opacity="0.996078431372549" d="M 38.5 44 L 57.5 44 L 60 46.5 Q 60.8 51.3 57.5 52 L 38.5 52 L 36 49.5 Q 35.3 44.8 38.5 44 Z " /></svg>